PathFileType	4	(X/Y/Z)	/Users/itak/Documents/Research/Walk-IL/dataset/trc/00225_00009.trc
DataRate	CameraRate	NumFrames	NumMarkers	Units	OrigDataRate	OrigDataStartFrame	OrigNumFrames
100.000000	100.000000	4	53	mm	100.000000	0	455
Frame#	Time	RPSI			LPSI			L3			STRN			T10			C7			CLAV			RBAK			LBAK			LSHO			LUPA			LAEL			LAOL			LWTS			LWPS			LFRA			LIFD			LHPS			LHTS			RSHO			RUPA			RAEL			RAOL			RWTS			RWPS			RFRA			RIFD			RHTS			RHPS			RBHD			LFHD			RFHD			LBHD			LHIP			RHIP			RASI			LASI			LKNE			LTHI			LANK			LTIP			LTOE			LMT1			LMT5			LHEE			RKNE			RANK			RTIP			RTOE			RMT1			RMT5			RHEE			RTHI			
		X1	Y1	Z1	X2	Y2	Z2	X3	Y3	Z3	X4	Y4	Z4	X5	Y5	Z5	X6	Y6	Z6	X7	Y7	Z7	X8	Y8	Z8	X9	Y9	Z9	X10	Y10	Z10	X11	Y11	Z11	X12	Y12	Z12	X13	Y13	Z13	X14	Y14	Z14	X15	Y15	Z15	X16	Y16	Z16	X17	Y17	Z17	X18	Y18	Z18	X19	Y19	Z19	X20	Y20	Z20	X21	Y21	Z21	X22	Y22	Z22	X23	Y23	Z23	X24	Y24	Z24	X25	Y25	Z25	X26	Y26	Z26	X27	Y27	Z27	X28	Y28	Z28	X29	Y29	Z29	X30	Y30	Z30	X31	Y31	Z31	X32	Y32	Z32	X33	Y33	Z33	X34	Y34	Z34	X35	Y35	Z35	X36	Y36	Z36	X37	Y37	Z37	X38	Y38	Z38	X39	Y39	Z39	X40	Y40	Z40	X41	Y41	Z41	X42	Y42	Z42	X43	Y43	Z43	X44	Y44	Z44	X45	Y45	Z45	X46	Y46	Z46	X47	Y47	Z47	X48	Y48	Z48	X49	Y49	Z49	X50	Y50	Z50	X51	Y51	Z51	X52	Y52	Z52	X53	Y53	Z53	

1	0	-1248.9775390625	1047.347412109375	-168.7326507568359	-1258.759765625	1051.773315429688	-48.6338005065918	-1241.681274414062	1128.155151367188	-93.17063140869141	-1473.829223632812	1323.376586914062	-102.5194473266602	-1221.886108398438	1254.904418945312	-101.8639602661133	-1274.996215820312	1519.18115234375	-103.5076675415039	-1441.284545898438	1439.306884765625	-104.523078918457	-1200.38330078125	1375.840209960938	-172.8956604003906	-1256.5966796875	1479.3505859375	8.025979995727539	-1346.623657226562	1484.607055664062	64.24967956542969	-1326.248413085938	1364.692993164062	144.3279266357422	-1357.921020507812	1154.3662109375	169.0677947998047	-1285.25537109375	1133.81201171875	124.0012435913086	-1458.341918945312	924.4021606445312	109.3117294311523	-1436.249267578125	906.696044921875	189.4128112792969	-1387.49365234375	1048.663940429688	182.0055694580078	-1472.0615234375	729.3831176757812	119.1309432983398	-1456.319458007812	819.0264892578125	185.2601776123047	-1497.487915039062	824.9381103515625	131.0378723144531	-1329.179565429688	1475.662353515625	-271.9536743164062	-1309.958129882812	1409.285888671875	-337.7801208496094	-1303.033813476562	1126.969604492188	-371.2657470703125	-1269.120727539062	1118.682983398438	-282.1972961425781	-1448.91162109375	919.419921875	-332.6973571777344	-1395.104248046875	902.6594848632812	-394.9072265625	-1331.77734375	1059.921997070312	-384.0012512207031	-1472.75732421875	727.43798828125	-326.7657470703125	-1493.441040039062	800.798583984375	-348.8096618652344	-1438.888061523438	797.2930908203125	-396.9107971191406	-1360.60302734375	1698.377075195312	-157.5541534423828	-1564.743896484375	1669.249389648438	-59.62095260620117	-1565.052978515625	1667.187744140625	-159.6572113037109	-1404.792602539062	1691.264526367188	-24.38666915893555	-1366.450317382812	992.5858154296875	85.39637756347656	-1342.926879882812	1010.667053222656	-279.9100341796875	-1439.242919921875	1055.982299804688	-249.4123992919922	-1464.0439453125	1037.549194335938	31.78479194641113	-1387.12451171875	508.8235778808594	34.40397262573242	-1392.848388671875	652.2339477539062	68.08295440673828	-1293.594482421875	41.03561019897461	21.80541229248047	-1333.218139648438	287.3399963378906	39.62263488769531	-1503.721801757812	46.51440048217773	-45.68918228149414	-1434.242309570312	41.49100494384766	-85.20118713378906	-1421.898071289062	39.79098129272461	30.79461288452148	-1228.439697265625	49.21451568603516	-26.33426094055176	-1369.747314453125	519.564453125	-240.1844787597656	-1283.248291015625	41.48897933959961	-209.9630432128906	-1370.288696289062	403.5089111328125	-221.4104919433594	-1496.909790039062	45.60558319091797	-168.937744140625	-1439.935791015625	44.96450042724609	-125.9711303710938	-1393.374633789062	42.17232513427734	-236.3638153076172	-1221.851684570312	42.61328506469727	-149.9898834228516	nan	nan	nan	
2	0.01	-1248.842651367188	1047.260864257812	-168.738037109375	-1258.665649414062	1051.669189453125	-48.60918807983398	-1241.510498046875	1128.323974609375	-93.25567626953125	-1473.602905273438	1323.234497070312	-102.4939575195312	-1221.705444335938	1255.075805664062	-101.9006500244141	-1275.010620117188	1519.37646484375	-103.6180038452148	-1441.161499023438	1439.188720703125	-104.5330581665039	-1200.264038085938	1376.151123046875	-172.8930816650391	-1256.584594726562	1479.296630859375	7.932488441467285	-1346.561889648438	1484.601196289062	64.19368743896484	-1325.821655273438	1364.732299804688	144.1975555419922	-1357.6396484375	1154.363891601562	168.9796142578125	-1284.931762695312	1133.823364257812	123.8799285888672	-1458.490966796875	924.7373046875	108.893928527832	-1436.437255859375	906.8215942382812	188.9250946044922	-1387.35595703125	1048.72998046875	181.8007202148438	-1472.857788085938	729.7830200195312	118.3727722167969	-1456.787231445312	819.256591796875	184.6324005126953	-1497.9306640625	825.2896728515625	130.3982696533203	-1329.200073242188	1475.662841796875	-271.9761962890625	-1309.869506835938	1409.311645507812	-337.7916259765625	-1302.785034179688	1126.96142578125	-371.259033203125	-1268.842041015625	1118.69921875	-282.1834411621094	-1448.8447265625	919.552490234375	-332.5170288085938	-1395.030517578125	902.6761474609375	-394.6830444335938	-1331.618286132812	1059.893920898438	-383.9717102050781	-1472.85400390625	727.6195678710938	-326.3887023925781	-1493.421508789062	800.9548950195312	-348.4769897460938	-1438.93359375	797.3540649414062	-396.6051330566406	-1362.2109375	1698.60791015625	-157.4596405029297	-1565.971923828125	1667.378784179688	-59.54965209960938	-1566.277954101562	1665.413818359375	-159.6074371337891	-1406.28955078125	1690.956665039062	-24.29704475402832	-1366.305541992188	992.6038818359375	85.45496368408203	-1342.711791992188	1010.734741210938	-279.9943542480469	-1439.040161132812	1055.995971679688	-249.3554077148438	-1463.857543945312	1037.642578125	31.82602119445801	-1387.129150390625	508.8551635742188	34.4350700378418	-1392.800048828125	652.2546997070312	68.11145782470703	-1293.589965820312	41.02748870849609	21.82853126525879	-1333.229370117188	287.3409729003906	39.58932495117188	-1503.536865234375	46.9746208190918	-45.67031860351562	-1434.197631835938	41.56472015380859	-85.14666748046875	-1421.8798828125	39.79319763183594	30.80055046081543	-1228.419799804688	49.19855880737305	-26.3175048828125	-1369.718383789062	519.5697631835938	-240.1551666259766	-1283.254760742188	41.49306869506836	-209.9633941650391	-1370.27099609375	403.5198059082031	-221.3944549560547	-1496.909545898438	45.60377883911133	-168.9388275146484	-1439.931030273438	44.96091079711914	-125.9738693237305	-1393.374755859375	42.17216110229492	-236.3650512695312	-1221.855224609375	42.61810302734375	-149.9856414794922	nan	nan	nan	
3	0.02	-1248.647094726562	1047.165893554688	-168.7447662353516	-1258.498291015625	1051.557250976562	-48.5716438293457	-1241.297973632812	1128.54541015625	-93.37101745605469	-1473.343994140625	1323.053344726562	-102.4687118530273	-1221.47412109375	1255.301025390625	-101.9510192871094	-1275.057739257812	1519.627685546875	-103.7486343383789	-1441.031494140625	1439.044311523438	-104.5429992675781	-1200.140258789062	1376.557373046875	-172.8985443115234	-1256.606567382812	1479.307006835938	7.820566177368164	-1346.532348632812	1484.595336914062	64.13322448730469	-1325.351318359375	1364.805908203125	144.0641937255859	-1357.278442382812	1154.370727539062	168.8831939697266	-1284.523071289062	1133.853271484375	123.7536239624023	-1458.64208984375	925.164306640625	108.3465728759766	-1436.658081054688	906.984375	188.2987976074219	-1387.173461914062	1048.810302734375	181.5402679443359	-1473.796997070312	730.2838745117188	117.3801498413086	-1457.33349609375	819.54638671875	183.8184509277344	-1498.472045898438	825.7498779296875	129.5817413330078	-1329.254272460938	1475.671875	-272.0022888183594	-1309.788696289062	1409.356567382812	-337.8086242675781	-1302.46484375	1126.96826171875	-371.2538146972656	-1268.51171875	1118.736083984375	-282.1757202148438	-1448.732055664062	919.7273559570312	-332.2840270996094	-1394.907104492188	902.7049560546875	-394.3987426757812	-1331.3896484375	1059.878173828125	-383.9292602539062	-1472.933959960938	727.8487548828125	-325.9017028808594	-1493.366333007812	801.160400390625	-348.051513671875	-1438.960205078125	797.4371337890625	-396.2121887207031	-1364.165161132812	1698.857543945312	-157.3393402099609	-1567.470336914062	1665.141357421875	-59.45809555053711	-1567.77392578125	1663.288940429688	-159.5380554199219	-1408.109130859375	1690.547485351562	-24.18379402160645	-1366.103759765625	992.6287231445312	85.53114318847656	-1342.431640625	1010.812133789062	-280.0827941894531	-1438.769775390625	1056.017700195312	-249.2865905761719	-1463.609130859375	1037.749877929688	31.87487030029297	-1387.152465820312	508.8985595703125	34.47561645507812	-1392.74462890625	652.2835693359375	68.14542388916016	-1293.586669921875	41.01478576660156	21.86128616333008	-1333.251708984375	287.3416137695312	39.5479850769043	-1503.290771484375	47.58251571655273	-45.63069152832031	-1434.135864257812	41.65871810913086	-85.07208251953125	-1421.85400390625	39.79483032226562	30.81122779846191	-1228.393676757812	49.17885208129883	-26.2973518371582	-1369.671142578125	519.5763549804688	-240.1161956787109	-1283.262329101562	41.49867630004883	-209.9631958007812	-1370.239013671875	403.5315246582031	-221.3703002929688	-1496.90966796875	45.60264205932617	-168.939453125	-1439.927856445312	44.95762634277344	-125.9765625	-1393.375610351562	42.17194366455078	-236.3667907714844	-1221.859497070312	42.6237678527832	-149.9806823730469	nan	nan	nan	
4	0.03	-1248.384643554688	1047.073486328125	-168.7515869140625	-1258.242065429688	1051.451416015625	-48.51973342895508	-1241.052612304688	1128.81396484375	-93.51455688476562	-1473.075317382812	1322.838989257812	-102.4473114013672	-1221.203979492188	1255.575805664062	-102.0143280029297	-1275.152954101562	1519.926879882812	-103.8897094726562	-1440.912475585938	1438.881225585938	-104.5510559082031	-1200.030029296875	1377.043823242188	-172.9129791259766	-1256.680786132812	1479.423828125	7.697824954986572	-1346.5537109375	1484.593017578125	64.07342529296875	-1324.886352539062	1364.919799804688	143.945556640625	-1356.850341796875	1154.391845703125	168.7886199951172	-1284.045288085938	1133.9072265625	123.6399459838867	-1458.773803710938	925.6672973632812	107.6828308105469	-1436.89404296875	907.1769409179688	187.5556030273438	-1386.951171875	1048.89990234375	181.2344360351562	-1474.81396484375	730.8638916015625	116.175178527832	-1457.91650390625	819.8792724609375	182.8431549072266	-1499.067138671875	826.3017578125	128.618896484375	-1329.352783203125	1475.693969726562	-272.029541015625	-1309.734252929688	1409.424682617188	-337.8313598632812	-1302.081787109375	1126.997802734375	-371.2513732910156	-1268.1435546875	1118.8017578125	-282.1802368164062	-1448.559448242188	919.939208984375	-332.0017700195312	-1394.72314453125	902.74853515625	-394.0648193359375	-1331.086669921875	1059.884155273438	-383.8727111816406	-1472.9736328125	728.115478515625	-325.3203735351562	-1493.267456054688	801.4080810546875	-347.54931640625	-1438.948852539062	797.5416259765625	-395.7435607910156	-1366.35302734375	1699.098266601562	-157.1976470947266	-1569.15478515625	1662.686279296875	-59.34928131103516	-1569.457397460938	1660.953369140625	-159.4483489990234	-1410.14697265625	1690.04833984375	-24.05153274536133	-1365.846313476562	992.6600341796875	85.62253570556641	-1342.098022460938	1010.891296386719	-280.1622314453125	-1438.437133789062	1056.049194335938	-249.2118225097656	-1463.298706054688	1037.86083984375	31.92782592773438	-1387.199829101562	508.9530334472656	34.52460861206055	-1392.686279296875	652.3199462890625	68.18109893798828	-1293.582641601562	40.99897384643555	21.90279960632324	-1333.287109375	287.341796875	39.49990081787109	-1502.992797851562	48.31672668457031	-45.56460952758789	-1434.056518554688	41.76734161376953	-84.97866821289062	-1421.8203125	39.79645538330078	30.82743644714355	-1228.362426757812	49.1569709777832	-26.27508163452148	-1369.600952148438	519.5838012695312	-240.0680694580078	-1283.269775390625	41.50543594360352	-209.9620513916016	-1370.189453125	403.54248046875	-221.3378143310547	-1496.910400390625	45.60259246826172	-168.939697265625	-1439.927124023438	44.95550918579102	-125.9789657592773	-1393.3779296875	42.17197418212891	-236.3693695068359	-1221.864013671875	42.62977600097656	-149.9755401611328	nan	nan	nan	
